<svg width="11" height="14" viewBox="0 0 11 14" fill="none" xmlns="http://www.w3.org/2000/svg">
<g clip-path="url(#clip0)">
<path fill-rule="evenodd" clip-rule="evenodd" d="M0.00860076 5.08997C0.206145 2.23805 2.6181 0 5.50001 0C8.38193 0 10.7939 2.23805 10.9914 5.09306C11.0659 6.40631 10.6535 7.70213 9.82847 8.74704L5.94768 13.783C5.89577 13.8504 5.82834 13.9051 5.75077 13.9427C5.67319 13.9804 5.5876 14 5.50081 14C5.41402 14 5.32844 13.9804 5.25086 13.9427C5.17328 13.9051 5.10585 13.8504 5.05395 13.783L1.17156 8.74396C0.346453 7.69911 -0.065986 6.40324 0.00860076 5.08997ZM5.50001 12.5491L8.93474 8.10077C9.60014 7.26234 9.93458 6.22148 9.87785 5.16555C9.73925 3.15733 8.0665 1.08432 5.50161 1.08432C2.93672 1.08432 1.26078 3.16504 1.12218 5.17018C1.06661 6.22454 1.40098 7.26357 2.06529 8.10077L5.50001 12.5491ZM4.16934 3.17643C4.56378 2.92351 5.02689 2.78964 5.49998 2.79177C6.13182 2.79463 6.73678 3.03964 7.18252 3.47322C7.62825 3.9068 7.87849 4.49365 7.87848 5.1054C7.87848 5.56345 7.73804 6.01119 7.47497 6.39189C7.21189 6.7726 6.83802 7.06913 6.40072 7.24392C5.96342 7.41871 5.48237 7.4639 5.01852 7.37374C4.55467 7.28359 4.1289 7.06217 3.79515 6.73752C3.4614 6.41287 3.23469 5.99962 3.14375 5.55011C3.05281 5.1006 3.10172 4.63507 3.2843 4.2125C3.46688 3.78994 3.7749 3.42935 4.16934 3.17643ZM4.78891 6.13664C4.99996 6.27092 5.24745 6.34147 5.49998 6.33933V6.34087C5.83634 6.33802 6.15789 6.20655 6.39454 5.97512C6.63119 5.74369 6.76375 5.43106 6.76331 5.1054C6.7633 4.86089 6.68827 4.6219 6.54772 4.41875C6.40718 4.21561 6.20747 4.05746 5.97394 3.9644C5.74041 3.87133 5.48359 3.84753 5.23606 3.89602C4.98854 3.94452 4.76148 4.06311 4.58369 4.23676C4.4059 4.41042 4.28541 4.63129 4.2375 4.87136C4.18959 5.11142 4.21642 5.35986 4.3146 5.58513C4.41277 5.81041 4.57786 6.00237 4.78891 6.13664Z" fill="white"/>
</g>
<defs>
<clipPath id="clip0">
<rect width="11" height="14" fill="white"/>
</clipPath>
</defs>
</svg>
