<svg width="11" height="14" viewBox="0 0 11 14" fill="none" xmlns="http://www.w3.org/2000/svg">
<path d="M7.52429 8.92424H8.36067C9.30226 8.92424 10.2224 9.63432 10.0658 10.5477L9.89531 11.4134C9.66102 12.4212 9.13174 13.0368 8.19015 13.125H2.82062C1.87903 13.0368 1.37175 12.2695 1.11546 11.4134L0.944945 10.5477C0.737428 9.66159 1.70851 8.92424 2.6501 8.92424H3.46346M2.61174 3.80836C2.41906 3.80836 2.22655 3.97265 2.22655 4.17509V4.90839C2.22655 5.11067 2.39911 5.27528 2.61174 5.27528C2.61174 5.27528 3.18945 6.74172 3.57447 7.2919C3.81302 7.63281 4.15218 8.45118 5.5001 8.45118C6.84803 8.45118 7.18702 7.63281 7.42574 7.2919C7.81093 6.74172 8.38847 5.27528 8.38847 5.27528C8.60093 5.27528 8.77366 5.11067 8.77366 4.90839V4.17509C8.77366 3.97265 8.60093 3.80836 8.38847 3.80836V3.25834C8.38847 1.97503 7.62592 0.875 5.5001 0.875C3.38179 0.875 2.61174 1.97487 2.61174 3.25834V3.80836Z" stroke="white" stroke-miterlimit="10" stroke-linecap="round" stroke-linejoin="round"/>
</svg>
