<svg width="28" height="28" viewBox="0 0 28 28" fill="none" xmlns="http://www.w3.org/2000/svg">
<circle cx="14" cy="14" r="14" />
<path fill-rule="evenodd" clip-rule="evenodd" d="M19.4676 15.3741C20.0175 15.8915 20.5979 16.3784 21.091 16.948C21.3089 17.2011 21.5151 17.4623 21.6729 17.7561C21.8965 18.1737 21.694 18.6332 21.3055 18.6582L18.8906 18.6571C18.2678 18.7069 17.7709 18.4652 17.3531 18.0548C17.0188 17.7265 16.7091 17.3772 16.3876 17.0379C16.2558 16.8992 16.1179 16.7687 15.9531 16.6655C15.6234 16.4593 15.3373 16.5224 15.1489 16.8538C14.957 17.1909 14.9135 17.5641 14.8946 17.9398C14.8688 18.4879 14.6969 18.632 14.1257 18.6571C12.9049 18.7126 11.7464 18.5345 10.6702 17.941C9.7213 17.4177 8.98551 16.679 8.34507 15.8427C7.09814 14.2143 6.14324 12.4249 5.28501 10.5854C5.09183 10.1709 5.23311 9.94847 5.70754 9.9406C6.49534 9.92585 7.28304 9.9269 8.07178 9.93955C8.39197 9.94406 8.60394 10.1211 8.72757 10.4126C9.1538 11.4228 9.67534 12.3839 10.33 13.2747C10.5043 13.5119 10.6821 13.749 10.9352 13.916C11.2153 14.1008 11.4285 14.0395 11.5602 13.7388C11.6439 13.5482 11.6804 13.3428 11.6993 13.1386C11.7617 12.4361 11.7699 11.7348 11.6605 11.0347C11.5933 10.5978 11.3379 10.3149 10.8856 10.2323C10.6548 10.1901 10.6892 10.1073 10.8009 9.98034C10.995 9.76133 11.1776 9.625 11.5415 9.625H14.2707C14.7004 9.70673 14.7958 9.89277 14.8546 10.3095L14.857 13.2315C14.8523 13.3928 14.9406 13.8715 15.242 13.9783C15.4833 14.0543 15.6423 13.8682 15.7871 13.7208C16.4405 13.0523 16.9069 12.2623 17.3235 11.4443C17.5084 11.0846 17.6674 10.7111 17.8215 10.3378C17.9356 10.0609 18.1148 9.92459 18.4384 9.93062L21.0652 9.93288C21.143 9.93288 21.2218 9.93398 21.2973 9.94642C21.7399 10.0191 21.8612 10.2027 21.7245 10.6192C21.5091 11.2729 21.09 11.8175 20.6802 12.3647C20.2422 12.949 19.7737 13.5132 19.3393 14.1008C18.9402 14.6375 18.9719 14.908 19.4676 15.3741Z" fill="white"/>
</svg>
