<svg width="134" height="52" viewBox="0 0 134 52" fill="none" xmlns="http://www.w3.org/2000/svg">
<path d="M67.5064 21.5228V23.8354H56.1351V7.25006H67.2962V9.56266H58.7503V14.2813H66.1521V16.4537H58.7503V21.5228H67.5064Z" fill="white"/>
<path d="M74.1768 24.069C73.1962 24.069 72.2155 23.9132 71.2348 23.6018C70.2697 23.2748 69.4369 22.8153 68.7364 22.2236L69.7638 20.5884C70.4954 21.1179 71.2192 21.5228 71.9353 21.8031C72.6513 22.0678 73.383 22.2002 74.1301 22.2002C74.8929 22.2002 75.4922 22.0523 75.9281 21.7564C76.3795 21.4605 76.6052 21.04 76.6052 20.495C76.6052 19.981 76.3561 19.6073 75.858 19.3737C75.3599 19.1401 74.5816 18.8831 73.5231 18.6028C72.7603 18.4004 72.1065 18.2057 71.5617 18.0188C71.0169 17.832 70.5732 17.6139 70.2308 17.3648C69.8883 17.1156 69.6393 16.8275 69.4836 16.5005C69.3279 16.1734 69.2501 15.7763 69.2501 15.3091C69.2501 14.6862 69.3668 14.1334 69.6003 13.6506C69.8494 13.1678 70.1841 12.7629 70.6044 12.4359C71.0402 12.0933 71.5461 11.8363 72.1221 11.665C72.698 11.4937 73.3207 11.4081 73.99 11.4081C74.9085 11.4081 75.7646 11.5482 76.5585 11.8285C77.3524 12.1089 78.0607 12.5138 78.6833 13.0432L77.5859 14.585C76.4495 13.6817 75.2431 13.2301 73.9667 13.2301C73.3129 13.2301 72.7603 13.3703 72.3089 13.6506C71.873 13.9153 71.6551 14.3436 71.6551 14.9354C71.6551 15.1845 71.7018 15.3948 71.7952 15.5661C71.8886 15.7374 72.0365 15.8853 72.2388 16.0099C72.4568 16.1345 72.7292 16.2513 73.0561 16.3603C73.3985 16.4537 73.8188 16.5628 74.3169 16.6873C75.142 16.8898 75.8502 17.0922 76.4417 17.2947C77.0488 17.4971 77.547 17.7385 77.9361 18.0188C78.3253 18.2836 78.6133 18.6028 78.8001 18.9766C78.9869 19.3348 79.0802 19.7708 79.0802 20.2847C79.0802 21.4527 78.6366 22.3793 77.7493 23.0645C76.8776 23.7342 75.6868 24.069 74.1768 24.069Z" fill="white"/>
<path d="M80.5301 17.7152C80.5301 16.8586 80.678 16.0488 80.9737 15.2858C81.2695 14.5227 81.6898 13.853 82.2346 13.2768C82.795 12.7006 83.4644 12.249 84.2427 11.922C85.021 11.5794 85.8927 11.4081 86.8578 11.4081C88.1187 11.4081 89.2006 11.6884 90.1034 12.249C91.0218 12.7941 91.7068 13.526 92.1582 14.4448L89.6598 15.239C89.364 14.7251 88.9671 14.328 88.4689 14.0477C87.9708 13.7518 87.4182 13.6039 86.8111 13.6039C86.2974 13.6039 85.8149 13.7051 85.3635 13.9076C84.9276 14.11 84.5462 14.3981 84.2193 14.7719C83.8924 15.13 83.6356 15.5583 83.4488 16.0566C83.262 16.555 83.1686 17.1078 83.1686 17.7152C83.1686 18.3069 83.262 18.8598 83.4488 19.3737C83.6512 19.872 83.9158 20.3081 84.2427 20.6818C84.5851 21.0556 84.9743 21.3515 85.4102 21.5695C85.8616 21.772 86.3364 21.8732 86.8345 21.8732C87.1458 21.8732 87.4571 21.8342 87.7685 21.7564C88.0798 21.6629 88.36 21.5384 88.609 21.3826C88.8737 21.2269 89.0994 21.0478 89.2862 20.8454C89.4885 20.6429 89.6364 20.4249 89.7298 20.1913L92.2516 20.9388C91.8469 21.8576 91.1697 22.6129 90.2202 23.2047C89.2706 23.7809 88.1498 24.069 86.8578 24.069C85.9083 24.069 85.0444 23.8977 84.266 23.5551C83.4877 23.2125 82.8184 22.7531 82.258 22.1769C81.7132 21.5851 81.2851 20.9076 80.9737 20.1446C80.678 19.3815 80.5301 18.5717 80.5301 17.7152Z" fill="white"/>
<path d="M97.6125 24.069C97.021 24.069 96.4684 23.9755 95.9547 23.7887C95.4565 23.5862 95.0207 23.3137 94.6471 22.9711C94.2891 22.6285 94.0011 22.2236 93.7832 21.7564C93.5808 21.2892 93.4796 20.7831 93.4796 20.238C93.4796 19.6618 93.6041 19.1401 93.8532 18.6729C94.1023 18.2057 94.4525 17.8008 94.9039 17.4582C95.3709 17.1156 95.9157 16.8509 96.5384 16.664C97.1766 16.4771 97.8771 16.3837 98.6399 16.3837C99.2158 16.3837 99.784 16.4382 100.344 16.5472C100.905 16.6406 101.411 16.773 101.862 16.9443V16.1034C101.862 15.2001 101.605 14.4993 101.092 14.001C100.578 13.4871 99.8385 13.2301 98.8734 13.2301C98.2196 13.2301 97.5736 13.3547 96.9353 13.6039C96.3127 13.8375 95.6667 14.1801 94.9973 14.6317L94.2034 12.9965C95.7757 11.9376 97.4101 11.4081 99.1069 11.4081C100.788 11.4081 102.096 11.8363 103.03 12.6929C103.964 13.5494 104.431 14.7796 104.431 16.3837V20.7986C104.431 21.3437 104.656 21.624 105.108 21.6396V23.8354C104.859 23.8821 104.641 23.9132 104.454 23.9288C104.283 23.9444 104.111 23.9522 103.94 23.9522C103.442 23.9522 103.053 23.8276 102.773 23.5784C102.508 23.3293 102.345 23.01 102.282 22.6207L102.212 21.8498C101.668 22.5662 100.99 23.119 100.181 23.5084C99.3871 23.8821 98.5309 24.069 97.6125 24.069ZM98.313 22.1769C98.9356 22.1769 99.5194 22.0678 100.064 21.8498C100.625 21.6162 101.06 21.297 101.372 20.8921C101.699 20.6118 101.862 20.3159 101.862 20.0044V18.3926C101.426 18.2213 100.959 18.0889 100.461 17.9955C99.9786 17.902 99.5038 17.8553 99.0368 17.8553C98.1184 17.8553 97.3634 18.0578 96.7719 18.4627C96.1959 18.852 95.908 19.3737 95.908 20.0278C95.908 20.6351 96.1337 21.149 96.5851 21.5695C97.0365 21.9744 97.6125 22.1769 98.313 22.1769Z" fill="white"/>
<path d="M114.481 24.069C113.501 24.069 112.637 23.8354 111.89 23.3682C111.142 22.901 110.551 22.2936 110.115 21.5461V28.811H107.547V11.6183H109.812V13.8141C110.279 13.0822 110.878 12.4982 111.609 12.0621C112.357 11.6261 113.197 11.4081 114.131 11.4081C114.972 11.4081 115.742 11.5794 116.443 11.922C117.143 12.2646 117.75 12.724 118.264 13.3002C118.778 13.8764 119.175 14.546 119.455 15.3091C119.751 16.0722 119.899 16.8742 119.899 17.7152C119.899 18.6028 119.766 19.436 119.502 20.2146C119.237 20.9777 118.863 21.6474 118.381 22.2236C117.898 22.7842 117.322 23.2358 116.653 23.5784C115.999 23.9055 115.275 24.069 114.481 24.069ZM113.641 21.8732C114.186 21.8732 114.676 21.7564 115.112 21.5228C115.563 21.2892 115.945 20.9777 116.256 20.5884C116.583 20.1991 116.832 19.7552 117.003 19.2569C117.174 18.7586 117.26 18.2447 117.26 17.7152C117.26 17.1545 117.159 16.6251 116.956 16.1267C116.77 15.6284 116.505 15.1923 116.163 14.8186C115.836 14.4448 115.439 14.1489 114.972 13.9309C114.505 13.7129 113.999 13.6039 113.454 13.6039C113.127 13.6039 112.785 13.6662 112.427 13.7908C112.069 13.9153 111.734 14.0866 111.423 14.3047C111.111 14.5227 110.839 14.7796 110.605 15.0755C110.372 15.3558 110.208 15.6673 110.115 16.0099V19.2102C110.271 19.5839 110.473 19.9343 110.722 20.2614C110.971 20.5884 111.244 20.8687 111.539 21.1023C111.851 21.3359 112.185 21.5228 112.543 21.6629C112.901 21.8031 113.267 21.8732 113.641 21.8732Z" fill="white"/>
<path d="M127.742 24.069C126.793 24.069 125.929 23.9055 125.151 23.5784C124.372 23.2358 123.703 22.7764 123.142 22.2002C122.598 21.624 122.17 20.9544 121.858 20.1913C121.562 19.4282 121.415 18.6184 121.415 17.7619C121.415 16.9054 121.562 16.0956 121.858 15.3325C122.17 14.5538 122.598 13.8764 123.142 13.3002C123.703 12.7084 124.372 12.249 125.151 11.922C125.929 11.5794 126.801 11.4081 127.766 11.4081C128.715 11.4081 129.571 11.5794 130.334 11.922C131.112 12.2646 131.774 12.724 132.319 13.3002C132.864 13.8608 133.276 14.5227 133.556 15.2858C133.852 16.0333 134 16.8197 134 17.6451C134 17.832 133.992 18.0111 133.977 18.1824C133.961 18.3381 133.946 18.4705 133.93 18.5795H124.146C124.193 19.1245 124.318 19.6151 124.52 20.0511C124.738 20.4872 125.01 20.8687 125.337 21.1957C125.68 21.5072 126.061 21.7486 126.481 21.9199C126.917 22.0912 127.369 22.1769 127.836 22.1769C128.178 22.1769 128.513 22.1379 128.84 22.0601C129.182 21.9666 129.494 21.842 129.774 21.6863C130.054 21.515 130.303 21.3125 130.521 21.0789C130.739 20.8454 130.91 20.5884 131.035 20.3081L133.229 20.9388C132.809 21.8576 132.109 22.6129 131.128 23.2047C130.163 23.7809 129.034 24.069 127.742 24.069ZM131.455 16.8041C131.408 16.2902 131.276 15.8153 131.058 15.3792C130.856 14.9432 130.591 14.5772 130.264 14.2813C129.937 13.9698 129.556 13.7285 129.12 13.5572C128.684 13.3859 128.225 13.3002 127.742 13.3002C127.26 13.3002 126.801 13.3859 126.365 13.5572C125.944 13.7285 125.571 13.9698 125.244 14.2813C124.917 14.5772 124.652 14.9432 124.45 15.3792C124.248 15.8153 124.123 16.2902 124.076 16.8041H131.455Z" fill="white"/>
<path d="M56.1351 47.195V30.6097H63.3501C64.0973 30.6097 64.7822 30.7654 65.4049 31.0769C66.0431 31.3883 66.5879 31.801 67.0394 32.3149C67.4908 32.8133 67.841 33.3895 68.0901 34.0435C68.3547 34.682 68.487 35.3361 68.487 36.0057C68.487 36.5664 68.4092 37.1036 68.2535 37.6176C68.0979 38.1315 67.8799 38.6064 67.5998 39.0425C67.3196 39.4785 66.9771 39.8601 66.5724 40.1871C66.1677 40.4986 65.724 40.7322 65.2415 40.8879L69.1408 47.195H66.1754L62.5796 41.4252H58.7503V47.195H56.1351ZM58.7503 39.1126H63.3268C63.7004 39.1126 64.0351 39.0347 64.3308 38.879C64.6421 38.7077 64.9068 38.4819 65.1247 38.2015C65.3426 37.9057 65.5139 37.5708 65.6384 37.1971C65.7629 36.8233 65.8252 36.4262 65.8252 36.0057C65.8252 35.5853 65.7474 35.1882 65.5917 34.8144C65.4516 34.4406 65.257 34.1136 65.008 33.8333C64.7745 33.553 64.4943 33.335 64.1674 33.1792C63.856 33.0079 63.5292 32.9223 63.1867 32.9223H58.7503V39.1126Z" fill="white"/>
<path d="M76.3905 47.4286C75.4254 47.4286 74.5537 47.2573 73.7753 46.9147C73.0126 46.5721 72.3588 46.1127 71.814 45.5365C71.2692 44.9603 70.8489 44.2906 70.5531 43.5275C70.2573 42.7489 70.1095 41.9391 70.1095 41.0981C70.1095 40.2572 70.2573 39.4552 70.5531 38.6921C70.8489 37.9134 71.2692 37.236 71.814 36.6598C72.3744 36.0836 73.0359 35.6242 73.7987 35.2816C74.577 34.939 75.4409 34.7677 76.3905 34.7677C77.34 34.7677 78.1962 34.939 78.9589 35.2816C79.7373 35.6242 80.3988 36.0836 80.9437 36.6598C81.504 37.236 81.9321 37.9134 82.2279 38.6921C82.5236 39.4552 82.6715 40.2572 82.6715 41.0981C82.6715 41.9391 82.5236 42.7489 82.2279 43.5275C81.9321 44.2906 81.504 44.9603 80.9437 45.5365C80.3988 46.1127 79.7373 46.5721 78.9589 46.9147C78.1962 47.2573 77.34 47.4286 76.3905 47.4286ZM72.748 41.1215C72.748 41.7133 72.8414 42.2583 73.0282 42.7567C73.215 43.255 73.4718 43.691 73.7987 44.0648C74.1256 44.423 74.507 44.7111 74.9428 44.9291C75.3942 45.1316 75.8768 45.2328 76.3905 45.2328C76.9042 45.2328 77.379 45.1316 77.8148 44.9291C78.2662 44.7111 78.6554 44.4152 78.9823 44.0415C79.3092 43.6677 79.566 43.2316 79.7528 42.7333C79.9396 42.235 80.033 41.6899 80.033 41.0981C80.033 40.5219 79.9396 39.9847 79.7528 39.4863C79.566 38.9724 79.3092 38.5286 78.9823 38.1548C78.6554 37.7811 78.2662 37.493 77.8148 37.2905C77.379 37.0725 76.9042 36.9635 76.3905 36.9635C75.8924 36.9635 75.4176 37.0725 74.9662 37.2905C74.5303 37.5085 74.1489 37.8044 73.822 38.1782C73.4951 38.5519 73.2305 38.9958 73.0282 39.5097C72.8414 40.008 72.748 40.5453 72.748 41.1215Z" fill="white"/>
<path d="M90.4367 47.4286C89.4716 47.4286 88.5999 47.2573 87.8215 46.9147C87.0588 46.5721 86.405 46.1127 85.8602 45.5365C85.3154 44.9603 84.8951 44.2906 84.5993 43.5275C84.3036 42.7489 84.1557 41.9391 84.1557 41.0981C84.1557 40.2572 84.3036 39.4552 84.5993 38.6921C84.8951 37.9134 85.3154 37.236 85.8602 36.6598C86.4206 36.0836 87.0821 35.6242 87.8449 35.2816C88.6232 34.939 89.4871 34.7677 90.4367 34.7677C91.3862 34.7677 92.2424 34.939 93.0051 35.2816C93.7835 35.6242 94.445 36.0836 94.9899 36.6598C95.5502 37.236 95.9783 37.9134 96.2741 38.6921C96.5698 39.4552 96.7177 40.2572 96.7177 41.0981C96.7177 41.9391 96.5698 42.7489 96.2741 43.5275C95.9783 44.2906 95.5502 44.9603 94.9899 45.5365C94.445 46.1127 93.7835 46.5721 93.0051 46.9147C92.2424 47.2573 91.3862 47.4286 90.4367 47.4286ZM86.7942 41.1215C86.7942 41.7133 86.8876 42.2583 87.0744 42.7567C87.2612 43.255 87.518 43.691 87.8449 44.0648C88.1718 44.423 88.5532 44.7111 88.989 44.9291C89.4404 45.1316 89.923 45.2328 90.4367 45.2328C90.9504 45.2328 91.4252 45.1316 91.861 44.9291C92.3124 44.7111 92.7016 44.4152 93.0285 44.0415C93.3554 43.6677 93.6122 43.2316 93.799 42.7333C93.9858 42.235 94.0792 41.6899 94.0792 41.0981C94.0792 40.5219 93.9858 39.9847 93.799 39.4863C93.6122 38.9724 93.3554 38.5286 93.0285 38.1548C92.7016 37.7811 92.3124 37.493 91.861 37.2905C91.4252 37.0725 90.9504 36.9635 90.4367 36.9635C89.9386 36.9635 89.4638 37.0725 89.0124 37.2905C88.5765 37.5085 88.1951 37.8044 87.8682 38.1782C87.5414 38.5519 87.2767 38.9958 87.0744 39.5097C86.8876 40.008 86.7942 40.5453 86.7942 41.1215Z" fill="white"/>
<path d="M117.675 47.195H115.107V40.3506C115.107 39.2138 114.92 38.3806 114.547 37.8511C114.173 37.3217 113.628 37.0569 112.912 37.0569C112.18 37.0569 111.511 37.3294 110.904 37.8745C110.313 38.404 109.884 39.097 109.62 39.9535V47.195H107.051V40.3506C107.051 39.1982 106.865 38.3651 106.491 37.8511C106.117 37.3217 105.58 37.0569 104.88 37.0569C104.148 37.0569 103.479 37.3217 102.872 37.8511C102.265 38.3806 101.829 39.0736 101.564 39.9302V47.195H98.9958V34.9779H101.331V37.4307C101.813 36.5742 102.444 35.9201 103.222 35.4685C104.016 35.0013 104.919 34.7677 105.931 34.7677C106.942 34.7677 107.736 35.0324 108.312 35.5619C108.904 36.0914 109.27 36.7532 109.41 37.5475C109.923 36.6442 110.569 35.959 111.348 35.4918C112.126 35.0091 113.013 34.7677 114.01 34.7677C114.726 34.7677 115.317 34.9078 115.784 35.1882C116.267 35.4529 116.648 35.8111 116.928 36.2627C117.208 36.7143 117.403 37.2438 117.512 37.8511C117.621 38.4429 117.675 39.0736 117.675 39.7433V47.195Z" fill="white"/>
<rect x="46.0483" y="21.5357" width="21.5741" height="2.28794" fill="white"/>
<rect x="46.0554" y="30.5619" width="16.0214" height="2.28097" fill="white"/>
<path fill-rule="evenodd" clip-rule="evenodd" d="M28.9058 42.5001L12.2887 33.8918L12.5764 33.3523L29.1935 41.9606L28.9058 42.5001Z" fill="white"/>
<path fill-rule="evenodd" clip-rule="evenodd" d="M38.7832 34.0653V16.1533H39.4015V34.0653H38.7832Z" fill="white"/>
<path fill-rule="evenodd" clip-rule="evenodd" d="M38.4741 22.9308L29.1302 28.3991L28.8634 27.8378L38.1584 22.4067L38.4741 22.9308Z" fill="white"/>
<path fill-rule="evenodd" clip-rule="evenodd" d="M37.538 15.5627L28.357 10.3311L16.8252 17.0268L25.8061 22.1771L37.538 15.5627ZM28.354 9.62545L15.6014 17.0301L25.8035 22.8807L38.7832 15.5627L38.247 15.2627L28.354 9.62545Z" fill="white"/>
<path d="M12.3868 33.9268L12.1234 33.7744L11.9688 22.1189L4.23992 17.6243M12.3868 33.9268L22.5849 28.1297M12.3868 33.9268L22.5849 39.2251M23.0984 27.8378V39.4115L22.5849 39.2251M23.0984 27.8378L4.23992 17.0301V13.9677L4.70366 13.663L25.8808 1.70277L46.7287 14.1201V21.5079H47.4007L47.4253 13.7107L25.8814 1.00006L4.3781 13.1444L3.62161 13.6415V38.7831L26.3453 51L28.6632 49.7472V49.7591L29.1178 49.5014L29.3588 49.3712V49.3648L47.3459 38.8507L47.3719 31.3572H46.7287V38.4975L29.2815 48.7056V42.5351L42.0335 35.4537L28.8634 27.8378M23.0984 27.8378L22.5849 28.1297M28.8634 27.8378L28.7405 27.9086V49.0103L26.3445 50.3054L4.23992 38.4214V17.6243M28.8634 27.8378L29.1302 28.3991L38.4741 22.9308L38.1584 22.4067L28.8634 27.8378ZM4.23992 17.6243V17.3958M22.5849 28.1297V39.2251M38.247 15.2627L28.354 9.62545L15.6014 17.0301L25.8035 22.8807L38.7832 15.5627L38.247 15.2627ZM21.8646 27.8356L12.7318 33.0271L12.5925 22.5219L21.8646 27.8356ZM40.8269 35.4708L29.3588 41.7722V28.8234L40.8269 35.4708ZM28.357 10.3311L37.538 15.5627L25.8061 22.1771L16.8252 17.0268L28.357 10.3311ZM12.2887 33.8918L28.9058 42.5001L29.1935 41.9606L12.5764 33.3523L12.2887 33.8918ZM38.7832 16.1533V34.0653H39.4015V16.1533H38.7832Z" stroke="white" stroke-width="1.5"/>
</svg>
